<svg width="289" height="88" viewBox="0 0 289 88" fill="none" xmlns="http://www.w3.org/2000/svg">
<path d="M112.636 27.96C111.796 30.36 110.116 32.04 107.596 32.04C104.596 32.04 101.956 29.376 101.956 25.44C101.956 21.504 104.596 18.84 107.596 18.84C110.116 18.84 111.772 20.52 112.516 22.92H113.716C112.876 19.92 110.716 17.76 107.596 17.76C104.02 17.76 100.756 20.904 100.756 25.44C100.756 29.976 104.02 33.12 107.596 33.12C110.74 33.12 112.876 30.96 113.836 27.96H112.636ZM115.753 27.72C115.753 30.84 117.913 33.12 120.673 33.12C123.433 33.12 125.593 30.84 125.593 27.72C125.593 24.6 123.433 22.32 120.673 22.32C117.913 22.32 115.753 24.6 115.753 27.72ZM124.513 27.72C124.513 30.216 122.713 32.04 120.673 32.04C118.633 32.04 116.833 30.216 116.833 27.72C116.833 25.224 118.633 23.4 120.673 23.4C122.713 23.4 124.513 25.224 124.513 27.72ZM128.239 33H129.319V17.88H128.239V33ZM139.988 30.36C139.46 31.08 138.572 32.04 136.988 32.04C134.804 32.04 133.292 30.504 133.028 28.2H141.548L141.596 27.96C141.62 27.792 141.668 27.624 141.668 27.36C141.668 24.48 139.484 22.32 136.868 22.32C134.108 22.32 131.948 24.6 131.948 27.72C131.948 30.84 134.108 33.12 136.988 33.12C139.268 33.12 140.732 31.704 141.308 30.36H139.988ZM133.028 27.12C133.412 24.936 134.948 23.4 136.868 23.4C138.788 23.4 140.324 24.936 140.588 27.12H133.028ZM144.077 33.84C144.533 35.64 146.045 37.08 148.637 37.08C151.157 37.08 153.077 35.16 153.077 32.64V22.44H152.357L151.997 24.24H151.877C151.613 23.88 151.325 23.568 150.989 23.28C150.413 22.8 149.525 22.32 148.397 22.32C145.781 22.32 143.597 24.6 143.597 27.48C143.597 30.36 145.781 32.64 148.397 32.64C149.525 32.64 150.413 32.16 150.989 31.68C151.325 31.392 151.613 31.08 151.877 30.72H151.997V32.64C151.997 34.56 150.557 36 148.637 36C146.717 36 145.757 35.064 145.277 33.84H144.077ZM148.397 31.56C146.477 31.56 144.677 29.784 144.677 27.48C144.677 25.176 146.477 23.4 148.397 23.4C150.317 23.4 152.117 25.176 152.117 27.48C152.117 29.784 150.317 31.56 148.397 31.56ZM156.434 33H157.514V22.44H156.434V33ZM156.194 19.08C156.194 19.56 156.554 19.92 157.034 19.92C157.514 19.92 157.874 19.56 157.874 19.08C157.874 18.6 157.514 18.24 157.034 18.24C156.554 18.24 156.194 18.6 156.194 19.08ZM160.144 27.72C160.144 30.84 162.304 33.12 165.064 33.12C167.824 33.12 169.984 30.84 169.984 27.72C169.984 24.6 167.824 22.32 165.064 22.32C162.304 22.32 160.144 24.6 160.144 27.72ZM168.904 27.72C168.904 30.216 167.104 32.04 165.064 32.04C163.024 32.04 161.224 30.216 161.224 27.72C161.224 25.224 163.024 23.4 165.064 23.4C167.104 23.4 168.904 25.224 168.904 27.72ZM177.068 28.8C177.188 31.296 178.988 33.12 181.988 33.12C184.988 33.12 186.788 31.32 186.788 28.92C186.788 23.472 178.508 25.728 178.508 21.6C178.508 20.16 179.804 18.84 181.988 18.84C183.908 18.84 185.228 20.16 185.348 21.96H186.548C186.428 19.68 184.508 17.76 181.988 17.76C179.108 17.76 177.308 19.56 177.308 21.6C177.308 26.784 185.588 24.552 185.588 28.92C185.588 30.744 184.292 32.04 181.988 32.04C179.804 32.04 178.532 30.72 178.268 28.8H177.068ZM196.034 28.68C196.034 30.72 194.714 32.04 192.674 32.04C190.85 32.04 189.914 31.08 189.914 30.12C189.914 28.8 190.994 27.72 194.714 27.72H196.034V28.68ZM196.394 33H197.114V26.04C197.114 23.856 195.578 22.32 193.274 22.32C190.994 22.32 189.578 23.76 189.314 25.32H190.394C190.754 24.24 191.57 23.4 193.274 23.4C194.978 23.4 196.034 24.48 196.034 26.04V26.64H194.714C190.394 26.64 188.834 28.2 188.834 30.12C188.834 31.824 190.154 33.12 192.554 33.12C193.778 33.12 194.57 32.736 195.122 32.28C195.434 32.04 195.698 31.752 195.914 31.44H196.034L196.394 33ZM200.356 33H201.436V26.76C201.436 24.84 202.876 23.4 204.796 23.4C206.596 23.4 208.036 24.84 208.036 26.76V33H209.116V26.76C209.116 24.144 207.316 22.32 204.916 22.32C203.692 22.32 202.876 22.752 202.324 23.16C202.012 23.424 201.748 23.688 201.556 24H201.436L201.076 22.44H200.356V33ZM213.196 30C213.196 31.92 214.396 33.12 215.956 33.12C216.22 33.12 216.46 33.072 216.652 33C216.748 32.976 216.844 32.928 216.916 32.88V31.92L216.724 31.992C216.556 32.016 216.388 32.04 216.196 32.04C215.116 32.04 214.276 31.44 214.276 30V23.52H216.916V22.44H214.276V19.32H213.316V21.24C213.316 22.032 212.908 22.44 212.116 22.44H211.156V23.52H213.196V30ZM226.151 28.68C226.151 30.72 224.831 32.04 222.791 32.04C220.967 32.04 220.031 31.08 220.031 30.12C220.031 28.8 221.111 27.72 224.831 27.72H226.151V28.68ZM226.511 33H227.231V26.04C227.231 23.856 225.695 22.32 223.391 22.32C221.111 22.32 219.695 23.76 219.431 25.32H220.511C220.871 24.24 221.687 23.4 223.391 23.4C225.095 23.4 226.151 24.48 226.151 26.04V26.64H224.831C220.511 26.64 218.951 28.2 218.951 30.12C218.951 31.824 220.271 33.12 222.671 33.12C223.895 33.12 224.687 32.736 225.239 32.28C225.551 32.04 225.815 31.752 226.031 31.44H226.151L226.511 33ZM235.872 33H237.072V21L242.472 33H243.192L248.592 21V33H249.792V17.88H248.712L242.832 30.96L236.952 17.88H235.872V33ZM260.112 28.68C260.112 30.72 258.792 32.04 256.752 32.04C254.928 32.04 253.992 31.08 253.992 30.12C253.992 28.8 255.072 27.72 258.792 27.72H260.112V28.68ZM260.472 33H261.192V26.04C261.192 23.856 259.656 22.32 257.352 22.32C255.072 22.32 253.656 23.76 253.392 25.32H254.472C254.832 24.24 255.648 23.4 257.352 23.4C259.056 23.4 260.112 24.48 260.112 26.04V26.64H258.792C254.472 26.64 252.912 28.2 252.912 30.12C252.912 31.824 254.232 33.12 256.632 33.12C257.856 33.12 258.648 32.736 259.2 32.28C259.512 32.04 259.776 31.752 259.992 31.44H260.112L260.472 33ZM264.434 33H265.514V26.88C265.514 24.696 266.834 23.4 268.874 23.4H269.474V22.32H268.994C267.77 22.32 266.954 22.752 266.402 23.16C266.09 23.424 265.826 23.688 265.634 24H265.514L265.154 22.44H264.434V33ZM271.653 33H272.733V22.44H271.653V33ZM271.893 20.52H272.733L274.773 17.64H273.333L271.893 20.52ZM282.682 28.68C282.682 30.72 281.362 32.04 279.322 32.04C277.498 32.04 276.562 31.08 276.562 30.12C276.562 28.8 277.642 27.72 281.362 27.72H282.682V28.68ZM283.042 33H283.762V26.04C283.762 23.856 282.226 22.32 279.922 22.32C277.642 22.32 276.226 23.76 275.962 25.32H277.042C277.402 24.24 278.218 23.4 279.922 23.4C281.626 23.4 282.682 24.48 282.682 26.04V26.64H281.362C277.042 26.64 275.482 28.2 275.482 30.12C275.482 31.824 276.802 33.12 279.202 33.12C280.426 33.12 281.218 32.736 281.77 32.28C282.082 32.04 282.346 31.752 282.562 31.44H282.682L283.042 33ZM148.94 62H149.66V46.88H148.58V53.24H148.46C148.196 52.88 147.908 52.568 147.548 52.28C146.948 51.8 146.084 51.32 144.86 51.32C142.1 51.32 139.94 53.6 139.94 56.72C139.94 59.84 142.1 62.12 144.86 62.12C146.084 62.12 146.948 61.64 147.548 61.16C147.908 60.872 148.196 60.56 148.46 60.2H148.58L148.94 62ZM144.86 61.04C142.82 61.04 141.02 59.216 141.02 56.72C141.02 54.224 142.82 52.4 144.86 52.4C146.9 52.4 148.7 54.224 148.7 56.72C148.7 59.216 146.9 61.04 144.86 61.04ZM160.332 59.36C159.804 60.08 158.916 61.04 157.332 61.04C155.148 61.04 153.636 59.504 153.372 57.2H161.892L161.94 56.96C161.964 56.792 162.012 56.624 162.012 56.36C162.012 53.48 159.828 51.32 157.212 51.32C154.452 51.32 152.292 53.6 152.292 56.72C152.292 59.84 154.452 62.12 157.332 62.12C159.612 62.12 161.076 60.704 161.652 59.36H160.332ZM153.372 56.12C153.756 53.936 155.292 52.4 157.212 52.4C159.132 52.4 160.668 53.936 160.932 56.12H153.372ZM170.06 62H178.82V60.92H171.26V46.88H170.06V62ZM180.136 56.72C180.136 59.84 182.296 62.12 185.056 62.12C187.816 62.12 189.976 59.84 189.976 56.72C189.976 53.6 187.816 51.32 185.056 51.32C182.296 51.32 180.136 53.6 180.136 56.72ZM188.896 56.72C188.896 59.216 187.096 61.04 185.056 61.04C183.016 61.04 181.216 59.216 181.216 56.72C181.216 54.224 183.016 52.4 185.056 52.4C187.096 52.4 188.896 54.224 188.896 56.72ZM192.621 62H193.701V55.76C193.701 53.84 195.141 52.4 197.061 52.4C198.861 52.4 200.301 53.84 200.301 55.76V62H201.381V55.76C201.381 53.144 199.581 51.32 197.181 51.32C195.957 51.32 195.141 51.752 194.589 52.16C194.277 52.424 194.013 52.688 193.821 53H193.701L193.341 51.44H192.621V62ZM212.541 65.84H213.621V51.44H212.901L212.541 53.24H212.421C212.157 52.88 211.869 52.568 211.509 52.28C210.909 51.8 210.045 51.32 208.821 51.32C206.061 51.32 203.901 53.6 203.901 56.72C203.901 59.84 206.061 62.12 208.821 62.12C210.045 62.12 210.909 61.64 211.509 61.16C211.869 60.872 212.157 60.56 212.421 60.2H212.541V65.84ZM208.821 61.04C206.781 61.04 204.981 59.216 204.981 56.72C204.981 54.224 206.781 52.4 208.821 52.4C210.861 52.4 212.661 54.224 212.661 56.72C212.661 59.216 210.861 61.04 208.821 61.04ZM216.973 57.68C216.973 60.296 218.773 62.12 221.173 62.12C222.397 62.12 223.189 61.736 223.741 61.28C224.053 61.04 224.317 60.752 224.533 60.44H224.653L225.013 62H225.733V51.44H224.653V57.68C224.653 59.6 223.213 61.04 221.293 61.04C219.493 61.04 218.053 59.6 218.053 57.68V51.44H216.973V57.68ZM236.41 59.36C235.882 60.08 234.994 61.04 233.41 61.04C231.226 61.04 229.714 59.504 229.45 57.2H237.97L238.018 56.96C238.042 56.792 238.09 56.624 238.09 56.36C238.09 53.48 235.906 51.32 233.29 51.32C230.53 51.32 228.37 53.6 228.37 56.72C228.37 59.84 230.53 62.12 233.41 62.12C235.69 62.12 237.154 60.704 237.73 59.36H236.41ZM229.45 56.12C229.834 53.936 231.37 52.4 233.29 52.4C235.21 52.4 236.746 53.936 237.01 56.12H229.45ZM240.739 62H241.819V55.76C241.819 53.84 243.259 52.4 245.179 52.4C246.979 52.4 248.419 53.84 248.419 55.76V62H249.499V55.76C249.499 53.144 247.699 51.32 245.299 51.32C244.075 51.32 243.259 51.752 242.707 52.16C242.395 52.424 242.131 52.688 241.939 53H241.819L241.459 51.44H240.739V62Z" fill="black"/>
<g filter="url(#filter0_d_9_162)">
<mask id="mask0_9_162" style="mask-type:alpha" maskUnits="userSpaceOnUse" x="4" y="0" width="80" height="80">
<circle cx="44" cy="40" r="40" fill="white"/>
</mask>
<g mask="url(#mask0_9_162)">
<path d="M4 57.1686L83.9446 57.4682V66.0974H4V57.1686Z" fill="#F39324" stroke="black" stroke-width="0.5"/>
<path d="M83.9446 41.9476H4V57.1686L83.9446 57.4682V41.9476Z" fill="#FF86C8" stroke="black" stroke-width="0.5"/>
<path d="M83.9446 19.7753V41.9476H4V19.7753H83.9446Z" fill="#2176FF" stroke="black" stroke-width="0.5"/>
<path d="M4 0V19.7753H83.9445V0H4Z" fill="#31393C" stroke="black" stroke-width="0.5"/>
<path d="M17.5274 64.1199L4.49896 65.9176H4.22176C4.09929 65.9176 4 66.0169 4 66.1394V79.7783C4 79.9008 4.09929 80 4.22176 80H82.2259H83.8202C83.9195 80 84 79.9195 84 79.8203V62.6783C84 62.5649 83.9572 62.4557 83.8802 62.3725C83.814 62.3009 83.7264 62.2528 83.6305 62.2353L81.2204 61.7959C79.8813 61.5517 78.6295 60.9612 77.5895 60.083L75.6286 58.427L74.6537 57.5465C72.6132 55.7035 70.806 53.6176 69.2724 51.3353C68.2632 49.8333 67.3766 48.2525 66.6212 46.6081L64.681 42.3841C64.1112 41.1438 63.33 40.012 62.3722 39.0395C60.9235 37.5685 59.1131 36.5046 57.123 35.9547L56.0969 35.6711C53.9372 35.0743 51.6505 35.1189 49.5157 35.7993C46.1228 36.8807 43.405 39.5049 42.1741 42.8465C41.8972 43.5982 41.5405 44.3273 41.1156 45.0064L34.4518 55.6561C33.3076 57.4846 31.8067 59.0637 30.0387 60.2992C28.1867 61.5933 26.0824 62.4818 23.8634 62.9067L17.5274 64.1199Z" fill="#B35926" stroke="black" stroke-width="0.5"/>
<path d="M61.5578 24.2256L61.7131 24.4494C61.9685 24.8832 62.319 25.2535 62.7381 25.5323L62.8219 25.588L62.9514 25.6898C63.2681 25.9388 63.6335 26.1187 64.024 26.218C64.2566 26.2772 64.4957 26.3071 64.7357 26.3071H65.095H66.5364L67.368 26.2472L68.3962 26.0805C68.4226 26.0762 68.4395 26.1077 68.4214 26.1273C67.9787 26.6059 67.4955 27.0453 66.9773 27.4407L66.8136 27.5655L66.5642 27.7249C65.9244 28.1335 65.2065 28.4044 64.4562 28.5203C64.1802 28.5629 63.9014 28.5843 63.6221 28.5843H63.0741C62.613 28.5843 62.1547 28.5137 61.715 28.3751C61.2729 28.2357 60.8548 28.0292 60.4755 27.7627L60.3906 27.703C60.0904 27.4921 59.8134 27.25 59.5643 26.9807L59.1629 26.5468L58.6525 25.8228C58.4023 25.4678 58.1958 25.084 58.0376 24.6796C57.792 24.0523 57.666 23.3846 57.666 22.711V22.5918V22.4373C57.666 21.7833 57.7404 21.1315 57.8878 20.4944L58.045 20.0331C58.1982 19.5835 58.4102 19.1562 58.6753 18.7621L58.7807 18.6055C59.0339 18.2293 59.3459 17.8962 59.7048 17.6191C60.1162 17.3015 60.5826 17.0624 61.0806 16.9139L61.9321 16.66C61.934 16.6595 61.9359 16.6592 61.9378 16.6592C61.9563 16.6592 61.9651 16.682 61.9513 16.6943L61.6689 16.9487C61.6614 16.9554 61.6546 16.9628 61.6485 16.9707L61.4611 17.2138C61.4075 17.2833 61.3619 17.3586 61.3251 17.4382L61.2332 17.6119C60.9993 18.0544 60.8073 18.5179 60.6598 18.9963C60.44 19.5505 60.3271 20.1414 60.3271 20.7377V20.7603C60.3271 21.2199 60.3926 21.6771 60.5215 22.1183L60.5361 22.1686C60.6184 22.4502 60.7243 22.7244 60.8528 22.9882L60.9503 23.1884C61.126 23.5492 61.3291 23.8959 61.5578 24.2256Z" fill="#FA9348" stroke="black" stroke-width="0.5"/>
<path d="M11.3181 36.9738L10.3202 37.9925L8.2689 36.3745H7.65906L6.99377 35.6554H8.2689L7.82538 34.5169L9.87666 34.8764L11.3181 34.2772V35.2959L12.9813 36.794L11.3181 36.9738Z" fill="white" stroke="black" stroke-width="0.5"/>
<path d="M10.4311 28.1648L7.88086 25.8277L10.4311 25.1685L10.8192 22.7715L12.4824 25.1685L14.4782 24.8689L13.7021 27.6255L15.3653 29.1835L14.4782 30.0225L12.9259 28.8839V29.3633L10.8192 31.8802L10.4311 28.1648Z" fill="white"/>
<path d="M21.6854 29.3633L20.8538 32.3596L18.359 33.3783L20.8538 33.7378V36.3146L23.016 34.4569H25.1782L24.0139 33.0187L25.5108 30.0225L22.6279 31.6405L21.6854 29.3633Z" fill="white"/>
<path d="M10.4311 28.1648L7.88086 25.8277L10.4311 25.1685L10.8192 22.7715L12.4824 25.1685L14.4782 24.8689L13.7021 27.6255L15.3653 29.1835L14.4782 30.0225L12.9259 28.8839V29.3633L10.8192 31.8802L10.4311 28.1648Z" stroke="black" stroke-width="0.5"/>
<path d="M21.6854 29.3633L20.8538 32.3596L18.359 33.3783L20.8538 33.7378V36.3146L23.016 34.4569H25.1782L24.0139 33.0187L25.5108 30.0225L22.6279 31.6405L21.6854 29.3633Z" stroke="black" stroke-width="0.5"/>
<path d="M49.7381 30.0225V27.7453L48.3521 30.0225L46.3008 28.7041L47.4096 31.4007L46.6334 33.4981L48.1857 32.5992L49.35 34.5168L49.5717 31.9401L51.1795 30.0225H49.7381Z" fill="white" stroke="black" stroke-width="0.5"/>
<path d="M44.8039 19.8352L43.4734 21.4532L45.4138 20.4345L47.2433 22.3521V19.8352H49.5718L47.2433 18.9963L46.0791 16.2996L45.1366 18.5169L43.1962 17.8577L44.8039 19.8352Z" fill="white" stroke="black" stroke-width="0.5"/>
<path d="M75.9058 27.0861L74.6306 30.2022L73.0783 30.382L74.3534 31.2809L73.8545 34.1573L75.7394 32L79.1767 32.8989L77.2363 30.6217L79.4539 28.5243L76.6819 29.4831L75.9058 27.0861Z" fill="white" stroke="black" stroke-width="0.5"/>
<path d="M73.6328 8.8689L71.3043 10.9663L69.7519 9.22845V12.1648L68.0887 12.6442L70.4727 13.4232V16L71.5815 13.603L74.4089 14.1423L72.2467 11.7453L73.6328 8.8689Z" fill="white" stroke="black" stroke-width="0.5"/>
<path d="M9.43313 16.7191L6.99377 18.8165L8.37977 16.4195L5.99585 15.4607L8.37977 14.5019L8.04713 13.0637L9.59945 14.3221L11.8725 13.6629L10.8191 15.5805L11.8725 17.1985L9.43313 16.7191Z" fill="white" stroke="black" stroke-width="0.5"/>
<path d="M13.3139 12.8839L14.8108 10.5468L13.0367 8.92883L14.9217 8.68913L14.8108 6.35205L16.7512 8.26965L19.6341 7.79025L17.86 9.58801L19.1351 12.0449L15.9196 10.7266L13.3139 12.8839Z" fill="white" stroke="black" stroke-width="0.5"/>
<path d="M22.1843 15.4606L21.0201 17.6779V15.2809L19.6341 14.9812L21.131 14.0824L20.8538 11.985L22.1843 13.1236L23.5149 12.2846L23.0159 14.0824L23.8475 15.2809L22.1843 15.4606Z" fill="white" stroke="black" stroke-width="0.5"/>
<path d="M36.2107 8.86891C35.2867 9.56804 33.4054 10.9783 33.2724 11.0262L34.6029 6.2322L32.5516 5.09363H35.1573L36.2107 3.17603L36.5433 5.2734L39.2599 5.81273L36.876 8.44943L37.2086 10.6067L36.2107 8.86891Z" fill="white" stroke="black" stroke-width="0.5"/>
<path d="M49.5163 6.1723L48.851 8.98878L46.1345 9.70788L48.6293 11.0262V13.0637L50.1261 11.5656L52.0665 12.1049L51.2904 10.3671L52.6209 7.91013L50.5697 8.68916L49.5163 6.1723Z" fill="white" stroke="black" stroke-width="0.5"/>
<path d="M31.0548 33.9775V31.5805L30.1123 30.8614L31.7755 30.5019L33.0506 27.0861L35.1573 32.779V35.2359L32.4962 32.779L31.0548 33.9775Z" fill="white" stroke="black" stroke-width="0.5"/>
</g>
</g>
<defs>
<filter id="filter0_d_9_162" x="0" y="0" width="88" height="88" filterUnits="userSpaceOnUse" color-interpolation-filters="sRGB">
<feFlood flood-opacity="0" result="BackgroundImageFix"/>
<feColorMatrix in="SourceAlpha" type="matrix" values="0 0 0 0 0 0 0 0 0 0 0 0 0 0 0 0 0 0 127 0" result="hardAlpha"/>
<feOffset dy="4"/>
<feGaussianBlur stdDeviation="2"/>
<feComposite in2="hardAlpha" operator="out"/>
<feColorMatrix type="matrix" values="0 0 0 0 0 0 0 0 0 0 0 0 0 0 0 0 0 0 0.25 0"/>
<feBlend mode="normal" in2="BackgroundImageFix" result="effect1_dropShadow_9_162"/>
<feBlend mode="normal" in="SourceGraphic" in2="effect1_dropShadow_9_162" result="shape"/>
</filter>
</defs>
</svg>
