<svg width="1440" height="825" viewBox="0 0 1440 825" fill="none" xmlns="http://www.w3.org/2000/svg">
<path d="M1440 870.877V44.3889C1440 44.3889 1221 2.38895 1077 2.38895C879.261 -5.34277 690.384 -9.66959 689 248.389C687.715 487.938 511.547 503.955 328 504.535C154.489 505.084 0 464.389 0 464.389V870.877H1440Z" fill="#FA9348"/>
<path fill-rule="evenodd" clip-rule="evenodd" d="M603.991 779.005C603.991 779.005 600.314 777.819 599.593 777.8C599.593 777.8 629.786 760.054 641.939 731.472C655.873 698.031 631.969 666.867 647.329 642.732L651.006 643.918C635.636 677.321 662.682 693.299 646.372 733.22C634.941 761.821 603.985 779.005 603.985 779.005L603.991 779.005ZM510.814 732.939C526.393 702.268 551.67 704.567 563.949 677.625L566.904 678.792C560.63 699.892 526.812 707.731 514.491 734.125C503.272 756.189 509.386 779.793 509.386 779.793C509.386 779.793 505.71 778.607 506.431 778.626C506.431 778.626 498.88 754.98 510.821 732.939L510.814 732.939ZM398.809 768.719L395.174 768.076C394.453 768.057 414.671 751.139 419.3 727.266C424.309 699.043 401.797 676.642 409.5 655.575L412.414 656.199C405.969 684.383 428.997 694.803 422.971 728.451C419.063 752.339 398.802 768.714 398.802 768.714L398.809 768.719ZM337.81 768.209L334.427 770.846C333.706 770.827 322.487 736.727 288.223 710.743C247.832 679.694 195.414 678.866 168.294 652.523L171.72 650.434C211.474 682.556 243.611 671.404 292.322 708.124C326.628 734.651 337.804 768.208 337.804 768.208L337.81 768.209ZM178.186 772.202C146.71 745.202 158.349 728.606 130.849 706.616L132.881 705.033C155.57 720.35 154.07 747.574 180.175 770.07C203.158 789.21 233.841 796.562 233.841 796.562C233.162 797.092 231.136 798.67 231.095 798.127C231.095 798.127 200.453 791.323 178.186 772.202ZM26.0451 714.774C32.7922 681.144 57.776 679.615 62.022 650.831L65.6571 651.473C65.175 673.272 35.4038 687.213 29.6385 714.873C25.0158 738.742 38.2268 761.447 38.2268 761.447C37.5057 761.428 34.5917 760.804 34.5917 760.804C34.5917 760.804 21.4164 738.647 26.0454 714.778L26.0451 714.774Z" fill="white"/>
<path fill-rule="evenodd" clip-rule="evenodd" d="M621.119 768.549C619.264 763.047 624.386 755.002 647.297 754.513C663.784 754.399 686.351 758.811 686.351 758.811C686.351 758.811 668.586 770.34 656.622 773.3C640.427 777.239 622.974 774.055 621.119 768.553L621.119 768.549ZM617.442 767.362C611.985 771.035 597.873 764.67 586.929 752.93C575.992 741.191 573.889 723.145 573.889 723.145C573.889 723.145 593.793 730.209 604.485 738.669C617.496 749.369 623.656 764.257 617.442 767.362ZM647.737 732.167C644.488 727.176 648.21 719.636 668.081 716.889C682.965 714.553 703.928 716.739 703.928 716.739C703.928 716.739 689.84 729.455 680.075 733.019C666.122 738.106 650.271 737.143 647.737 732.171L647.737 732.167ZM644.102 731.524C639.366 735.216 626.095 730.505 613.882 720.916C602.391 711.345 597.542 694.86 597.542 694.86C597.542 694.86 617.279 699.741 627.082 705.993C641.403 715.095 648.796 727.284 644.102 731.524ZM648.785 689.661C646.335 685.781 647.948 678.734 664.899 675.362C677.584 672.421 694.828 672.873 694.828 672.873C694.828 672.873 684.249 684.591 676.641 688.208C665.601 693.918 651.95 693.56 648.785 689.656L648.785 689.661ZM645.871 689.038C642.571 692.767 630.147 689.715 619.496 681.803C608.894 674.436 602.811 660.644 602.811 660.644C602.811 660.644 619.508 663.261 629.228 668.427C641.946 675.303 649.886 685.327 645.871 689.038ZM645.809 660.135C644.08 656.274 646.491 650.337 662.132 648.568C672.744 646.667 688.636 648.173 688.636 648.173C688.636 648.173 677.889 657.708 670.239 660.776C660.474 664.336 648.211 663.472 645.809 660.135ZM643.61 659.53C640.226 662.168 629.959 659.172 620.786 651.842C612.334 644.531 608.541 632.436 608.541 632.436C608.541 632.436 623.122 635.545 630.685 640.649C641.204 646.925 646.951 656.344 643.609 659.525L643.61 659.53ZM646.877 645.984C640.959 643.649 641.725 634.943 648.2 625.844C654.674 616.745 670.743 611.167 670.743 611.167C670.743 611.167 671.706 623.734 667.978 631.268C663.744 641.516 652.788 648.318 646.871 645.984L646.877 645.984ZM478.805 754.996C473.274 748.308 470.707 733.519 470.707 733.519C470.707 733.519 486.261 739.927 496.142 747.271C509.111 757.427 506.784 764.456 501.964 767.056C497.859 769.675 485.267 764.439 478.805 754.996ZM530.502 755.804C541.919 755.014 558.735 759.271 558.735 759.271C558.735 759.271 545.879 769.292 531.758 772.196C518.316 774.569 505.969 772.609 504.919 768.218C503.107 763.265 516.255 757.063 530.502 755.804ZM490.497 720.401C487.123 713.771 486.791 700.13 486.791 700.13C486.791 700.13 500.272 707.573 507.281 714.846C517.42 725.471 514.287 731.389 510.141 733.459C505.279 735.511 495.475 729.258 490.491 720.401L490.497 720.401ZM538.263 726.017C548.321 726.281 562.356 731.555 562.356 731.555C562.356 731.555 549.333 739.392 536.522 740.693C523.669 741.446 512.681 738.431 512.346 734.059C512.011 729.687 524.612 725.654 538.263 726.012L538.263 726.017ZM520.741 693.931C518.165 688.41 519.401 676.447 519.401 676.447C519.401 676.447 530.004 683.815 535.542 690.503C543.439 699.979 540.224 704.805 536.035 706.327C531.846 707.854 523.526 702.183 520.741 693.931ZM560.767 701.523C569.473 702.841 581.351 708.062 581.351 708.062C581.351 708.062 568.917 714.279 558.138 713.996C546.679 714.243 537.806 710.736 538.275 707.475C537.982 703.651 549.231 700.673 560.767 701.523ZM541.848 679.215C539.314 674.243 539.24 663.878 539.24 663.878C539.24 663.878 549.002 669.587 554.45 675.182C562.222 683.018 559.727 687.863 556.26 689.409C552.792 690.955 545.229 685.846 541.855 679.215L541.848 679.215ZM577.351 683.962C585.258 684.17 596.33 688.276 596.33 688.276C596.33 688.276 586.012 694.005 576.038 694.833C566.778 695.68 558.71 693.289 558.458 690.009C558.207 686.729 567.257 683.15 577.357 683.962L577.351 683.962ZM561.346 662.279C564.436 655.817 573.193 648.41 573.193 648.41C573.193 648.41 578.303 658.902 576.774 667.042C575.287 675.729 569.282 681.567 564.884 680.362C559.813 679.682 557.665 670.356 561.345 662.274L561.346 662.279ZM408.251 760.777C406.48 756.368 408.807 749.339 425.848 747.06C438.659 745.759 455.987 747.303 455.987 747.303C455.987 747.303 444.651 758.458 435.601 762.037C424.477 766.651 410.743 765.201 408.25 760.773L408.251 760.777ZM406.052 760.173C402.03 763.883 390.243 759.758 380.23 750.769C370.216 741.78 366.256 727.502 366.256 727.502C366.256 727.502 382.357 731.74 391.398 737.43C403.485 745.379 410.108 757.005 406.052 760.173ZM423.024 728.99C420.574 725.11 421.466 718.044 436.266 714.616C447.515 711.637 463.282 711.509 463.282 711.509C463.282 711.509 454.859 723.283 447.252 726.899C437.612 732.099 425.433 732.327 423.03 728.991L423.024 728.99ZM420.11 728.367C417.531 732.115 406.543 729.101 395.976 722.281C386.13 715.481 380.096 702.233 380.096 702.233C380.096 702.233 395.315 704.269 404.272 708.867C415.512 715.161 423.41 724.637 420.11 728.367ZM417.472 693.944C415.064 690.607 415.324 684.619 427.926 680.586C436.296 677.532 449.828 676.255 449.828 676.255C449.828 676.255 443.438 686.446 438.023 690.667C430.534 695.923 420.56 696.751 417.478 693.944L417.472 693.944ZM415.273 693.339C413.367 696.563 403.94 695.221 394.184 689.513C385.185 684.371 378.598 673.293 378.598 673.293C378.598 673.293 391.618 674.724 399.728 677.663C410.121 682.298 417.893 690.134 415.273 693.339ZM411.315 669.787C408.949 666.999 409.966 661.573 421.215 658.594C429.67 656.637 441.128 656.39 441.128 656.39C441.128 656.39 434.612 664.945 429.834 668.089C422.262 672.254 412.966 672.552 411.315 669.783L411.315 669.787ZM409.116 669.182C406.453 671.839 398.42 669.992 390.858 664.888C383.295 659.784 378.227 649.835 378.227 649.835C378.227 649.835 389.811 651.228 396.527 654.678C405.484 659.276 411.058 666.512 409.116 669.187L409.116 669.182ZM409.714 658.293C405.275 656.539 404.015 649.417 407.695 641.334C411.381 633.251 422.415 627.541 422.415 627.541C422.415 627.541 425.367 637.977 423.713 644.48C421.511 653.149 414.106 659.497 409.708 658.292L409.714 658.293ZM332.966 751.704C324.218 749.838 314.926 740.872 324.323 723.124C330.505 710.201 345.945 696.427 345.945 696.427C345.945 696.427 354.723 717.378 354.124 728.268C353.098 742.963 341.041 754.1 332.972 751.704L332.966 751.704ZM330.261 753.812C332.199 760.405 317.657 767.114 296.897 767.659C276.143 768.204 249.601 758.787 249.601 758.787C249.601 758.787 268.123 747.819 284.443 745.521C304.987 742.244 327.56 746.652 330.261 753.812ZM293.096 708.668C285.105 707.369 275.223 700.02 280.348 682.706C283.699 670.252 294.784 655.821 294.784 655.821C294.784 655.821 306.266 674.66 307.741 684.514C308.787 698.174 300.365 709.948 293.096 708.668ZM290.349 710.233C293.682 716.32 282.053 723.647 263.624 726.438C245.189 729.228 220.298 722.575 220.298 722.575C220.298 722.575 234.47 710.951 248.507 706.956C266.096 702.512 287.059 704.694 290.356 710.233L290.349 710.233ZM234.276 680.409C227.048 679.672 218.722 674.001 220.428 658.781C222.462 647.929 230.086 635.044 230.086 635.044C230.086 635.044 241.995 650.078 244.102 658.86C246.417 670.373 240.747 680.583 234.276 680.413L234.276 680.409ZM232.244 681.992C235.493 686.983 226.021 694.371 211.221 697.799C195.706 701.208 174.569 696.838 174.569 696.838C174.569 696.838 185.19 685.664 196.349 681.598C211.024 676.53 228.268 676.982 232.238 681.992L232.244 681.992ZM191.381 663.473C185.588 662.773 178.705 657.14 182.008 644.142C184.168 634.93 192.674 624.247 192.674 624.247C192.674 624.247 201.628 638.114 202.214 645.761C203.689 655.616 197.172 664.167 191.381 663.473ZM189.349 665.056C191.841 669.485 182.958 675.247 169.517 677.621C155.312 679.428 137.012 674.589 137.012 674.589C137.012 674.589 147.8 665.603 158.37 663.154C171.686 659.14 186.863 660.628 189.356 665.056L189.349 665.056ZM172.745 654.262C167.205 656.843 154.571 651.059 144.432 640.435C135.014 629.83 133.079 613.963 133.079 613.963C133.079 613.963 151.546 620.99 160.755 628.868C172.967 638.457 178.28 651.686 172.739 654.267L172.745 654.262ZM193.646 805.31C183.588 805.046 164.525 799.64 164.525 799.64C164.525 799.64 178.311 792.37 190.275 789.41C206.469 785.472 214.747 790.599 215.803 794.985C217.616 799.938 206.54 805.101 193.646 805.31ZM212.441 769.812C215.406 761.711 225.431 752.158 225.431 752.158C225.431 752.158 233.706 766.554 232.344 776.877C230.31 787.729 223.71 795.188 217.876 793.945C212 792.154 208.207 780.06 212.441 769.812ZM155.789 779.232C146.362 777.895 130.093 771.469 130.093 771.469C130.093 771.469 144.005 765.833 155.38 764.5C171.02 762.731 177.189 768.345 178.245 772.731C179.259 776.574 168.094 780.644 155.795 779.232L155.789 779.232ZM178.595 749.293C183.08 742.321 194.036 735.518 194.036 735.518C194.036 735.518 199.355 748.743 195.753 757.922C192.914 767.663 185.467 773.463 180.27 771.148C174.394 769.357 173.557 758.429 178.595 749.293ZM134.506 744.863C127.236 743.582 113.797 736.688 113.797 736.688C113.797 736.688 125.72 733.184 135.742 732.9C150.031 732.185 154.721 737.214 154.973 740.494C155.266 744.318 145.417 746.786 134.512 744.863L134.506 744.863ZM157.773 720.935C162.383 715.603 172.744 710.422 172.744 710.422C172.744 710.422 175.781 721.955 172.052 729.489C168.324 737.023 160.8 741.736 157.04 739.454C152.6 737.7 152.609 728.432 157.773 720.935ZM124.924 722.8C117.695 722.063 105.818 716.846 105.818 716.846C105.818 716.846 115.541 712.738 124.086 711.873C136.176 710.553 140.783 714.49 141.749 717.789C142.001 721.069 133.588 723.575 124.924 722.8ZM142.566 700.362C145.02 694.974 153.944 689.755 153.944 689.755C153.944 689.755 157.57 699.666 155.242 706.695C152.915 713.723 146.82 718.469 143.101 716.735C139.425 715.549 138.075 707.334 142.566 700.362ZM110.992 700.081C104.15 694.996 98.4026 685.572 98.4026 685.572C98.4026 685.572 112.859 687.041 121.858 692.187C131.62 697.896 136.43 704.564 133.81 707.769C131.147 710.426 119.395 706.844 110.986 700.081L110.992 700.081ZM1.60411 741.925C-5.32166 735.743 -12.1604 721.389 -12.1604 721.389C-12.1604 721.389 4.6621 725.647 15.8601 731.393C31.5396 739.436 31.3629 746.521 27.3417 750.232C24 753.418 10.8123 749.798 1.60411 741.925ZM51.9165 733.975C62.4864 731.526 79.0995 733.051 79.0995 733.051C79.0995 733.051 70.0046 745.355 57.445 749.932C44.9274 755.056 32.7122 754.736 30.22 750.307C27.7278 745.879 37.8373 737.422 51.9162 733.971L51.9165 733.975ZM3.07079 704.883C-1.70419 698.758 -5.58094 685.571 -5.58094 685.571C-5.58094 685.571 9.16811 690.864 18.251 697.102C31.0943 705.618 29.4816 712.665 25.3831 715.284C21.9994 717.922 10.1639 713.248 3.07079 704.883ZM50.2506 702.847C60.225 702.019 75.5278 705.146 75.5278 705.146C75.5278 705.146 64.8229 715.224 52.8591 718.184C40.8953 721.144 30.032 719.765 28.2613 715.36C26.5323 711.498 37.482 704.696 50.2509 702.852L50.2506 702.847ZM25.0788 673.833C21.8301 668.842 19.4663 656.78 19.4663 656.78C19.4663 656.78 31.3854 662.546 38.9903 668.198C48.9617 676.639 46.5022 682.027 43.0764 684.116C39.6507 686.206 30.6939 681.612 25.0784 673.828L25.0788 673.833ZM66.0806 675.456C74.6607 675.133 87.1273 678.734 87.1273 678.734C87.1273 678.734 76.9762 686.647 66.3226 688.004C55.7107 689.905 46.2838 688.568 45.276 684.726C44.9829 680.902 54.6639 676.246 66.0806 675.456ZM41.6626 656.278C37.6928 651.268 34.7819 641.375 34.7819 641.375C34.7819 641.375 45.8542 645.482 52.6542 650.023C61.7788 656.805 61.441 661.707 58.0153 663.796C55.3107 665.904 46.4313 662.403 41.6626 656.278ZM77.426 655.036C84.5285 654.133 96.1546 656.075 96.1546 656.075C96.1546 656.075 88.1606 664.044 78.9847 665.983C69.8508 668.47 61.145 667.152 60.2144 664.401C59.2419 661.102 67.4516 655.864 77.426 655.036ZM55.88 635.934C56.8135 629.416 63.2879 620.317 63.2879 620.317C63.2879 620.317 71.1858 629.793 71.856 638.537C72.5261 647.28 68.7143 653.723 63.6852 653.591C59.371 653.478 54.393 644.621 55.8803 635.938L55.88 635.934Z" fill="white"/>
<path fill-rule="evenodd" clip-rule="evenodd" d="M1290.34 807.515C1290.34 807.515 1287.04 806.067 1286.32 805.986C1286.32 805.986 1322.04 791.772 1343.13 765.684C1367.51 735.137 1353.36 703.439 1376.26 681.857L1379.56 683.306C1353.76 713.692 1375.79 731.238 1347.01 767.733C1326.64 793.902 1290.33 807.515 1290.33 807.515L1290.34 807.515ZM1211.62 755.595C1236.78 727.823 1261.32 732.221 1282.02 707.703L1284.61 709.07C1271.74 728.564 1235.49 733.05 1214.93 757.044C1196.81 777.021 1195.54 799.979 1195.54 799.979C1195.54 799.979 1192.24 798.53 1192.96 798.612C1192.96 798.612 1192.8 775.488 1211.63 755.596L1211.62 755.595ZM1088.5 779.776L1085.06 778.847C1084.35 778.766 1109.85 764.465 1121.94 742.192C1135.77 715.82 1120.27 692.568 1134.56 673.231L1137.27 674.078C1122.02 700.288 1141.78 712.203 1125.23 743.639C1113.86 765.99 1088.49 779.77 1088.49 779.77L1088.5 779.776ZM1027.69 773.949L1023.49 776.159C1022.77 776.078 1022.22 742.701 996.105 715.018C965.446 681.985 913.319 676.608 894.452 649.209L898.529 647.524C928.215 681.52 963.82 673.74 1001.02 712.889C1027.01 741.092 1027.69 773.949 1027.69 773.949L1027.69 773.949ZM866.918 763.764C843.903 735.359 860.724 720.613 840.116 697.316L842.641 695.989C860.528 712.526 850.517 738.257 869.573 761.913C886.557 782.108 914.923 791.779 914.923 791.779C914.078 792.223 911.561 793.545 911.689 793.025C911.689 793.025 883.193 783.879 866.918 763.764ZM732.825 695.887C750.083 664.531 775.529 665.267 788.773 638.294L792.205 639.223C784.907 659.888 750.795 670.525 736.385 696.295C724.302 718.565 730.406 741.291 730.406 741.291C729.692 741.21 726.974 740.362 726.974 740.362C726.974 740.362 720.735 718.16 732.824 695.891L732.825 695.887Z" fill="white"/>
<path fill-rule="evenodd" clip-rule="evenodd" d="M1310.73 799.082C1310.59 793.694 1318.23 786.5 1341.28 788.042C1357.79 789.377 1378.96 795.545 1378.96 795.545C1378.96 795.545 1357.6 804.941 1344.72 806.705C1327.31 809.028 1310.86 804.475 1310.72 799.087L1310.73 799.082ZM1307.42 797.633C1300.82 800.645 1288.71 793.362 1281.44 781.252C1274.18 769.142 1277.72 751.815 1277.72 751.815C1277.72 751.815 1295.4 760.269 1303.44 769.241C1313.1 780.545 1314.6 795.227 1307.42 797.633ZM1348.7 766.852C1347.02 761.826 1353.09 754.99 1373.81 754.12C1389.42 753.205 1409.68 757.117 1409.68 757.117C1409.68 757.117 1391.63 767.963 1380.75 770.494C1365.22 774.104 1349.68 771.802 1348.7 766.856L1348.7 766.852ZM1345.27 765.923C1339.38 769.015 1327.59 763.378 1318.39 753.199C1309.89 743.102 1310.2 727.017 1310.2 727.017C1310.2 727.017 1328.4 733.381 1336.24 740.179C1347.71 750.08 1351.29 762.306 1345.27 765.923ZM1363.04 726.566C1361.8 722.665 1365.62 716.111 1383.62 714.393C1397.21 712.71 1414.3 714.65 1414.3 714.65C1414.3 714.65 1400.07 724.855 1391.33 727.624C1378.52 732.082 1364.98 730.547 1363.04 726.561L1363.04 726.566ZM1360.32 725.718C1355.86 728.972 1344.4 724.984 1336.23 716.536C1327.93 708.609 1326.17 694.975 1326.17 694.975C1326.17 694.975 1342.04 698.923 1350.13 704.681C1360.69 712.327 1365.5 722.545 1360.32 725.718ZM1369.3 698.256C1368.78 694.437 1373.04 689.008 1389.23 688.698C1400.43 687.821 1415.84 690.644 1415.84 690.644C1415.84 690.644 1402.12 698.76 1393.51 701.004C1382.64 703.531 1370.66 701.636 1369.3 698.256ZM1367.29 697.489C1363.08 699.699 1353.76 695.954 1346.88 688.187C1340.72 680.502 1340.71 668.68 1340.71 668.68C1340.71 668.68 1354.31 672.91 1360.28 678.421C1368.83 685.304 1371.62 694.755 1367.29 697.485L1367.29 697.489ZM1374.79 684.907C1369.61 682.171 1373.09 673.968 1382.41 665.891C1391.72 657.814 1409.53 653.922 1409.53 653.922C1409.53 653.922 1406.56 665.945 1400.48 672.776C1393.04 682.14 1379.97 687.642 1374.78 684.906L1374.79 684.907ZM1172.74 773.745C1169.3 766.908 1171.36 752.634 1171.36 752.634C1171.36 752.634 1184.9 760.083 1192.48 767.925C1202.26 778.709 1197.74 785.182 1192.11 787.23C1187.19 789.358 1176.24 783.281 1172.74 773.745ZM1224.15 779.04C1235.81 779.289 1251.28 784.806 1251.28 784.806C1251.28 784.806 1235.3 793.2 1220.28 794.721C1206.1 795.799 1194.38 792.855 1194.7 788.592C1194.44 783.728 1209.52 778.988 1224.15 779.04ZM1195.24 741.906C1193.94 735.311 1197.87 722.324 1197.87 722.324C1197.87 722.324 1209.02 730.575 1213.75 738.099C1220.56 749.079 1215.58 754.426 1210.79 756.03C1205.29 757.553 1197.44 750.755 1195.23 741.905L1195.24 741.906ZM1241.22 751.424C1251.19 752.555 1263.56 758.794 1263.56 758.794C1263.56 758.794 1248.1 765.099 1234.89 765.213C1221.81 764.802 1211.77 760.976 1212.8 756.793C1213.83 752.611 1227.69 749.883 1241.22 751.419L1241.22 751.424ZM1233.74 719.408C1232.89 713.939 1237.87 702.683 1237.87 702.683C1237.87 702.683 1246.16 710.61 1249.6 717.448C1254.53 727.141 1249.81 731.444 1245.15 732.523C1240.48 733.607 1233.94 727.491 1233.74 719.408ZM1271.37 730.126C1279.66 732.14 1289.89 738.141 1289.89 738.141C1289.89 738.141 1275.52 742.957 1264.84 741.744C1253.31 740.975 1245.54 736.867 1247.03 733.81C1247.93 730.152 1260.1 728.308 1271.37 730.126ZM1259.43 707.278C1258.46 702.333 1261.62 692.48 1261.62 692.48C1261.62 692.48 1269.59 698.758 1273.29 704.55C1278.61 712.675 1274.6 717.059 1270.65 718.224C1266.7 719.388 1260.74 713.873 1259.44 707.278L1259.43 707.278ZM1293.43 714.896C1301.27 715.786 1311.05 720.656 1311.05 720.656C1311.05 720.656 1298.95 725.195 1288.72 725.108C1279.2 725.102 1271.88 722.124 1272.66 718.986C1273.43 715.848 1283.6 713.241 1293.44 714.897L1293.43 714.896ZM1284.22 692.896C1289.32 687.029 1300.39 680.759 1300.39 680.759C1300.39 680.759 1302.22 691.174 1298.14 698.772C1293.94 706.894 1286.12 711.914 1282.1 710.384C1277.24 709.294 1278.01 700.247 1284.22 692.891L1284.22 692.896ZM1100.42 773.059C1100.02 768.715 1104.55 762.242 1122.29 761.569C1135.5 761.455 1152.34 764.439 1152.34 764.439C1152.34 764.439 1137.52 774.043 1127.36 776.65C1114.8 780.059 1101.52 777.479 1100.42 773.054L1100.42 773.059ZM1098.41 772.292C1093.23 775.464 1082.74 770.513 1075.54 761.097C1068.34 751.681 1068.85 737.771 1068.85 737.771C1068.85 737.771 1083.62 743.207 1090.87 749.404C1100.47 758.013 1103.45 769.638 1098.41 772.292ZM1125.12 744.156C1123.88 740.256 1126.98 733.621 1142.85 731.661C1155.02 729.816 1170.82 731.075 1170.82 731.075C1170.82 731.075 1158.72 741.522 1149.99 744.291C1138.73 748.387 1126.48 747.537 1125.13 744.157L1125.12 744.156ZM1122.4 743.309C1118.65 746.644 1108.61 742.818 1100.18 735.414C1092.47 728.092 1090.58 714.978 1090.58 714.978C1090.58 714.978 1105.16 718.245 1112.67 723.397C1121.94 730.362 1126.87 740.055 1122.4 743.309ZM1130.53 710.378C1129.16 706.997 1131.3 701.331 1145.15 698.604C1154.47 696.435 1168.4 696.407 1168.4 696.407C1168.4 696.407 1158.82 705.528 1152.09 709.064C1142.96 713.402 1132.74 713.315 1130.53 710.378L1130.53 710.378ZM1128.52 709.61C1125.61 712.506 1116.6 710.406 1108.64 704.128C1101.25 698.456 1098.13 687.355 1098.13 687.355C1098.13 687.355 1110.7 689.855 1117.89 693.357C1126.82 698.671 1132.14 706.795 1128.52 709.61ZM1131.93 686.891C1130.43 684.034 1133.15 678.969 1145.32 677.125C1154.38 676.005 1165.91 676.774 1165.91 676.774C1165.91 676.774 1156.72 684.331 1150.97 686.899C1142.1 690.192 1132.71 689.662 1131.93 686.886L1131.93 686.891ZM1129.92 686.123C1126.43 688.414 1118.98 685.955 1113.01 680.445C1107.05 674.934 1105.1 665.039 1105.1 665.039C1105.1 665.039 1116.24 667.377 1121.87 671.242C1129.39 676.395 1132.69 683.756 1129.92 686.128L1129.92 686.123ZM1133.92 675.831C1130.03 673.777 1131 666.9 1137.21 659.544C1143.42 652.189 1156.23 647.73 1156.23 647.73C1156.23 647.73 1155.92 657.902 1152.23 663.936C1147.32 671.978 1137.93 677.36 1133.92 675.83L1133.92 675.831ZM1028.01 757.847C1019.85 755.308 1013.37 745.977 1028.31 729.94C1038.53 718.205 1058.27 706.472 1058.27 706.472C1058.27 706.472 1060.49 727.144 1056.49 737.437C1050.87 751.306 1035.33 760.83 1028.02 757.847L1028.01 757.847ZM1024.65 759.612C1024.53 766.045 1007.9 771.144 986.978 769.844C966.066 768.545 942.484 757.274 942.484 757.274C942.484 757.274 964.424 748.478 981.453 747.724C1003.01 746.41 1024.19 752.574 1024.65 759.612ZM1001.62 713.473C994.043 711.539 986.466 703.693 997.001 687.694C1004.24 676.156 1019.83 663.418 1019.83 663.418C1019.83 663.418 1025.42 682.32 1023.81 691.81C1020.59 704.878 1008.49 715.326 1001.62 713.473ZM998.389 714.719C999.817 720.793 985.904 726.735 966.614 727.772C947.317 728.808 924.521 720.309 924.521 720.309C924.521 720.309 942.319 710.508 957.597 707.942C976.565 705.26 996.833 709.169 998.396 714.719L998.389 714.719ZM951.675 681.477C944.681 680.144 938.133 674.027 944.597 659.719C950.023 649.588 961.671 638.016 961.671 638.016C961.671 638.016 968.873 653.34 968.232 661.867C966.946 673.007 958.088 682.209 951.674 681.481L951.675 681.477ZM949.149 682.803C950.836 687.829 939.06 694.018 923.196 695.978C906.625 697.858 886.867 691.855 886.867 691.855C886.867 691.855 900.975 682.17 913.399 679.285C929.65 675.756 946.742 677.696 949.143 682.802L949.149 682.803ZM914.101 661.632C908.531 660.46 903.412 654.506 910.778 642.448C915.817 633.886 927.657 624.483 927.657 624.483C927.657 624.483 932.27 638.44 930.465 645.756C928.858 655.246 919.672 662.799 914.101 661.632ZM911.575 662.958C912.682 667.383 902.002 672.079 887.826 673.157C873.065 673.63 856.289 667.431 856.289 667.431C856.289 667.431 869.881 659.84 881.21 658.439C895.773 655.792 910.476 658.534 911.582 662.959L911.575 662.958ZM898.357 651.251C892.012 653.217 881.194 646.616 874.384 635.636C868.288 624.736 871.314 609.494 871.314 609.494C871.314 609.494 887.574 617.787 894.313 626.077C903.52 636.256 904.694 649.288 898.349 651.254L898.357 651.251ZM872.017 796.569C862.048 795.438 844.686 788.633 844.686 788.633C844.686 788.633 860.737 782.934 873.619 781.17C891.035 778.847 897.705 784.442 897.389 788.701C897.652 793.565 884.969 797.5 872.017 796.569ZM901.9 764.494C907.396 757.057 920.402 748.86 920.402 748.86C920.402 748.86 924.171 763.261 919.582 772.948C914.156 783.079 905.228 789.586 899.786 787.895C894.474 785.679 894.465 773.858 901.9 764.494ZM842.337 768.481C833.333 766.386 819.084 758.856 819.084 758.856C819.084 758.856 834.749 754.721 846.534 754.45C862.718 754.14 867.128 760.013 866.812 764.272C866.624 768.012 854.193 770.9 842.343 768.482L842.337 768.481ZM874.49 742.037C881.152 735.807 894.228 730.304 894.228 730.304C894.228 730.304 895.409 743.333 888.94 751.737C883.056 760.743 873.8 765.6 869.331 762.945C864.019 760.73 866.598 750.275 874.49 742.037ZM831.813 733.968C824.948 732.115 813.673 724.389 813.673 724.389C813.673 724.389 826.683 722.105 836.788 722.712C851.292 723.284 854.408 728.472 853.633 731.61C852.731 735.268 842.116 736.75 831.819 733.969L831.813 733.968ZM862.547 713.276C868.822 708.614 880.796 704.6 880.796 704.6C880.796 704.6 880.225 715.821 874.143 722.652C868.062 729.483 859.069 733.301 856.024 730.803C852.135 728.749 855.042 719.945 862.547 713.276ZM829.134 712.171C822.141 710.838 811.902 704.842 811.902 704.842C811.902 704.842 822.904 701.791 831.714 701.717C844.209 701.522 847.582 705.665 847.517 708.883C846.742 712.021 837.551 713.665 829.134 712.171ZM853.782 692.4C857.919 687.496 868.469 683.32 868.469 683.32C868.469 683.32 868.994 693.053 864.47 699.526C859.947 705.999 852.372 709.974 849.198 708C845.894 706.552 847.114 698.63 853.782 692.4ZM822.314 689.369C817.067 683.939 814.269 674.483 814.269 674.483C814.269 674.483 828.257 677.144 835.642 682.821C843.613 689.099 846.336 695.855 842.715 698.67C839.223 700.961 828.598 696.529 822.308 689.368L822.314 689.369ZM699.91 719.539C694.921 713.06 692.574 698.826 692.574 698.826C692.574 698.826 708.056 704.343 717.45 710.782C730.605 719.796 728.214 726.511 723.035 729.684C718.699 732.418 706.651 727.825 699.91 719.539ZM752.677 716.393C764.007 714.992 780.133 717.896 780.133 717.896C780.133 717.896 767.196 728.788 753.214 732.035C739.101 735.807 726.994 734.433 725.888 730.008C724.782 725.582 737.529 718.434 752.679 716.389L752.677 716.393ZM712.957 684.479C710.1 678.243 710.349 665.377 710.349 665.377C710.349 665.377 723.434 671.696 730.561 678.417C740.734 687.632 736.919 694.185 732.004 696.314C727.798 698.523 717.431 693.047 712.957 684.479ZM760.745 686.677C770.972 686.763 785.288 691.075 785.288 691.075C785.288 691.075 771.439 699.711 758.557 701.475C745.675 703.239 735.249 700.977 734.857 696.638C734.336 692.818 747.406 687.315 760.744 686.681L760.745 686.677ZM744.66 656.911C742.974 651.885 744.383 640.22 744.383 640.22C744.383 640.22 754.492 646.74 760.325 652.776C767.651 661.667 763.509 666.57 759.432 668.255C755.355 669.94 747.84 664.792 744.661 656.906L744.66 656.911ZM785.13 662.042C793.806 662.488 805.139 667 805.139 667C805.139 667 792.52 673.628 781.448 673.984C770.248 674.861 761.245 672.765 761.439 669.027C762.342 665.369 773.473 661.793 785.13 662.042ZM766.723 641.686C764.322 636.579 764.506 626.927 764.506 626.927C764.506 626.927 774.287 631.797 779.663 636.707C786.662 643.949 784.792 648.575 780.715 650.26C777.353 652.026 769.574 647.922 766.723 641.686ZM802.853 643.638C810.234 643.402 821.245 646.265 821.245 646.265C821.245 646.265 810.765 653.136 800.988 654.174C791.082 655.736 782.794 653.722 782.724 651.027C782.783 647.808 792.626 643.552 802.853 643.638ZM787.293 623.605C790.264 617.495 799.579 609.418 799.579 609.418C799.579 609.418 804.509 619.112 802.445 627.477C800.381 635.842 794.557 641.628 789.572 641.062C785.296 640.577 783.09 631.727 787.291 623.61L787.293 623.605Z" fill="white"/>
<g clip-path="url(#clip0_57_2)">
<path d="M1455.32 957.99L1456.59 740.905C1335.35 733.86 1214.07 733.497 1092.76 739.816C971.438 746.134 850.213 736.477 729.082 710.843C607.951 685.209 486.62 693.767 365.089 736.517C243.558 779.267 122.291 776.847 1.28897 729.26L1.19784e-05 949.575L1455.32 957.99Z" fill="url(#paint0_linear_57_2)"/>
</g>
<defs>
<linearGradient id="paint0_linear_57_2" x1="1455.32" y1="957.99" x2="0.000577527" y2="949.476" gradientUnits="userSpaceOnUse">
<stop stop-color="white"/>
<stop offset="1" stop-color="white"/>
</linearGradient>
<clipPath id="clip0_57_2">
<rect width="1455.35" height="288.502" fill="white" transform="translate(1455.32 948.962) rotate(-179.667)"/>
</clipPath>
</defs>
</svg>
