<?xml version="1.0" ?><svg width="50px" height="50px" viewBox="0 0 80 80" data-name="Layer 1" id="Layer_1" xmlns="http://www.w3.org/2000/svg"><defs><style>.cls-1{fill:#48ef48;}.cls-2{fill:#2dd32d;}.cls-3{fill:none;stroke:#000;stroke-linecap:round;stroke-miterlimit:10;stroke-width:4px;}</style></defs><title/><path class="cls-1" d="M43.6576,50.9593c9.5618-12.7077,21.7519-26.0025,16.6282-30.9645-5.192-5.288-23.9384,1.9747-35.168,12.2588-11.6989,9.8109-4.2076,20.73-2.0516,22.9135C25.5168,57.5863,34.6542,63.89,43.6576,50.9593Z"/><path class="cls-2" d="M60.2858,19.9948c-1.8358-1.87-5.37-2.1647-9.6639-1.3174A6.542,6.542,0,0,1,54.5373,20.7c4.6993,5.3658-8.5406,17.6155-19.1129,29.4957-3.6148,4.3766-7.04,6.2559-10.0506,6.7572,3.9028,2.4133,11.1336,4.2758,18.2838-5.9932C53.2194,38.2516,65.4095,24.9568,60.2858,19.9948Z"/><path class="cls-3" d="M43.6576,50.9593c9.5618-12.7077,21.7519-26.0025,16.6282-30.9645-5.192-5.288-23.9384,1.9747-35.168,12.2588-11.6989,9.8109-4.2076,20.73-2.0516,22.9135C25.5168,57.5863,34.6542,63.89,43.6576,50.9593Z"/><path class="cls-3" d="M49.6668,27.6131a143.0573,143.0573,0,0,0-31.1644,34.165"/><path class="cls-3" d="M38.805,29.6056q.8256,2.94,1.6775,5.9274,3.07.9132,6.1478,1.8183"/><path class="cls-3" d="M30.9962,34.6111q1.8408,3.2765,3.74,6.6282,3.2978,1.8877,6.5527,3.7149"/><path class="cls-3" d="M25.7252,42.1593q1.4295,2.8872,2.9457,5.8677,2.8167,1.4333,5.5644,2.7873"/></svg>